HIERARCHY
ROOT Hips
{
	OFFSET 0.000000 0.000000 0.000000
	CHANNELS 6 Xposition Yposition Zposition Zrotation Yrotation Xrotation 
	JOINT LHipJoint
	{
		OFFSET 0.000000 0.000000 0.000000
		CHANNELS 3 Zrotation Yrotation Xrotation
		JOINT LeftUpLeg
		{
			OFFSET 1.363060 -1.794630 0.839290
			CHANNELS 3 Zrotation Yrotation Xrotation
			JOINT LeftLeg
			{
				OFFSET 2.448110 -6.726130 0.000000
				CHANNELS 3 Zrotation Yrotation Xrotation
				JOINT LeftFoot
				{
					OFFSET 2.562200 -7.039590 0.000000
					CHANNELS 3 Zrotation Yrotation Xrotation
					JOINT LeftToeBase
					{
						OFFSET 0.157640 -0.433110 2.322550
						CHANNELS 3 Zrotation Yrotation Xrotation
						End Site
						{
							OFFSET 0.000000 0.000000 0.000000
						}
					}
				}
			}
		}
	}
	JOINT RHipJoint
	{
		OFFSET 0.000000 0.000000 0.000000
		CHANNELS 3 Zrotation Yrotation Xrotation
		JOINT RightUpLeg
		{
			OFFSET -1.305520 -1.794630 0.839290
			CHANNELS 3 Zrotation Yrotation Xrotation
			JOINT RightLeg
			{
				OFFSET -2.542530 -6.985550 0.000000
				CHANNELS 3 Zrotation Yrotation Xrotation
				JOINT RightFoot
				{
					OFFSET -2.568260 -7.056230 0.000000
					CHANNELS 3 Zrotation Yrotation Xrotation
					JOINT RightToeBase
					{
						OFFSET -0.164730 -0.452590 2.363150
						CHANNELS 3 Zrotation Yrotation Xrotation
						End Site
						{
							OFFSET 0.000000 0.000000 0.000000
						}
					}
				}
			}
		}
	}
	JOINT LowerBack
	{
		OFFSET 0.000000 0.000000 0.000000
		CHANNELS 3 Zrotation Yrotation Xrotation
		JOINT Spine
		{
			OFFSET 0.028270 2.035590 -0.193380
			CHANNELS 3 Zrotation Yrotation Xrotation
			JOINT Spine1
			{
				OFFSET 0.056720 2.048850 -0.042750
				CHANNELS 3 Zrotation Yrotation Xrotation
				JOINT Neck
				{
					OFFSET 0.000000 0.000000 0.000000
					CHANNELS 3 Zrotation Yrotation Xrotation
					JOINT Neck1
					{
						OFFSET -0.054170 1.746240 0.172020
						CHANNELS 3 Zrotation Yrotation Xrotation
						JOINT Head
						{
							OFFSET 0.104070 1.761360 -0.123970
							CHANNELS 3 Zrotation Yrotation Xrotation
							End Site
							{
								OFFSET 0.000000 0.000000 0.000000
							}
						}
					}
				}
				JOINT LeftShoulder
				{
					OFFSET 0.000000 0.000000 0.000000
					CHANNELS 3 Zrotation Yrotation Xrotation
					JOINT LeftArm
					{
						OFFSET 3.362410 1.200890 -0.311210
						CHANNELS 3 Zrotation Yrotation Xrotation
						JOINT LeftForeArm
						{
							OFFSET 4.983000 -0.000000 -0.000000
							CHANNELS 3 Zrotation Yrotation Xrotation
							JOINT LeftHand
							{
								OFFSET 3.483560 -0.000000 -0.000000
								CHANNELS 3 Zrotation Yrotation Xrotation
								JOINT LeftFingerBase
								{
									OFFSET 0.000000 0.000000 0.000000
									CHANNELS 3 Zrotation Yrotation Xrotation
									JOINT LeftHandIndex1
									{
										OFFSET 0.715260 -0.000000 -0.000000
										CHANNELS 3 Zrotation Yrotation Xrotation
										End Site
										{
											OFFSET 0.000000 0.000000 0.000000
										}
									}
								}
								JOINT LThumb
								{
									OFFSET 0.000000 0.000000 0.000000
									CHANNELS 3 Zrotation Yrotation Xrotation
									End Site
									{
										OFFSET 0.000000 0.000000 0.000000
									}
								}
							}
						}
					}
				}
				JOINT RightShoulder
				{
					OFFSET 0.000000 0.000000 0.000000
					CHANNELS 3 Zrotation Yrotation Xrotation
					JOINT RightArm
					{
						OFFSET -3.136600 1.374050 -0.404650
						CHANNELS 3 Zrotation Yrotation Xrotation
						JOINT RightForeArm
						{
							OFFSET -5.241900 -0.000000 -0.000000
							CHANNELS 3 Zrotation Yrotation Xrotation
							JOINT RightHand
							{
								OFFSET -3.444170 -0.000000 -0.000000
								CHANNELS 3 Zrotation Yrotation Xrotation
								JOINT RightFingerBase
								{
									OFFSET 0.000000 0.000000 0.000000
									CHANNELS 3 Zrotation Yrotation Xrotation
									JOINT RightHandIndex1
									{
										OFFSET -0.622530 -0.000000 -0.000000
										CHANNELS 3 Zrotation Yrotation Xrotation
										End Site
										{
											OFFSET 0.000000 0.000000 0.000000
										}
									}
								}
								JOINT RThumb
								{
									OFFSET 0.000000 0.000000 0.000000
									CHANNELS 3 Zrotation Yrotation Xrotation
									End Site
									{
										OFFSET 0.000000 0.000000 0.000000
									}
								}
							}
						}
					}
				}
			}
		}
	}
}
MOTION
Frames: 8
Frame Time: 0.008333
-10.689468 15.404001 -0.502755 -30.651639 85.794655 -3.926828 -11.943728 1.781803 -5.703322 -6.119682 15.341654 -20.441958 -1.548094 3.250325 52.805154 1.105024 5.481293 -15.218941 -0.912899 -0.000000 -73.885500 7.787005 0.665166 -1.665696 21.223192 -0.973539 -71.758036 2.718208 -5.712812 51.486533 0.129914 3.442677 -8.437754 0.022500 0.000000 -17.246900 4.739774 -3.008261 10.100262 0.199840 -2.871933 -0.810879 -6.232811 -2.767019 -0.017367 9.469632 -13.564368 -9.262046 -2.873340 -0.169595 -0.828594 0.000000 0.000000 0.000000 6.621421 9.348192 1.610564 -51.632818 0.322677 -2.648256 -179.099855 -78.320380 179.999022 -0.477792 4.131012 -0.012476 -0.074818 0.308631 0.000000 0.000000 0.000000 0.000000 0.000000 0.000000 0.000000 11.447530 -9.191675 0.873349 70.157591 -15.715535 7.157319 0.319134 80.024310 -0.037188 -11.064267 3.929463 -0.411962 0.174277 -0.269401 -0.000000 0.000000 0.000000 0.000000 0.000000 0.000000 0.000000 
-10.478062 15.379371 -0.486880 -29.557977 86.060771 -2.989138 -12.004656 1.828330 -5.619230 -5.913167 14.803340 -19.677395 -1.344011 3.257010 53.172528 1.053548 5.444034 -13.468700 -0.709201 -0.000000 -74.831200 7.838146 0.775429 -1.755532 20.440135 -0.920992 -71.639330 2.417415 -5.815864 53.492363 -0.033116 2.827354 -9.363824 0.000000 0.000000 -11.201100 5.024805 -3.030183 10.127986 0.276139 -2.891906 -0.818029 -6.154853 -2.791238 -0.056409 9.390122 -13.437766 -9.309479 -2.876401 -0.169266 -0.842434 0.000000 0.000000 0.000000 6.576475 9.361183 1.655378 -52.407038 1.158550 -2.359280 -179.128030 -78.728439 -179.999800 -0.644683 4.107509 -0.018181 -0.070569 0.304634 0.000000 0.000000 0.000000 0.000000 0.000000 0.000000 0.000000 11.389872 -9.014530 0.891238 70.021475 -15.491826 7.027953 0.328062 79.868738 -0.037269 -11.078808 3.939184 -0.413566 0.175128 -0.269892 -0.000000 0.000000 0.000000 0.000000 0.000000 0.000000 0.000000 
-10.270073 15.358470 -0.473257 -29.607772 86.321059 -3.157947 -12.061478 1.852883 -5.529756 -5.675108 14.188838 -19.083933 -1.122117 3.277601 53.710009 1.017181 5.446507 -11.633655 -0.510300 -0.000000 -75.104200 7.879804 0.867146 -1.851335 19.780074 -0.849147 -71.454316 2.152164 -5.903486 55.367694 -0.215070 2.132716 -10.428955 -0.004400 0.000000 -7.168600 5.373667 -3.047661 10.165153 0.364257 -2.906550 -0.825886 -6.086828 -2.810850 -0.108240 9.334294 -13.261872 -9.342373 -2.888324 -0.169734 -0.853680 0.000000 0.000000 0.000000 6.521796 9.344624 1.704234 -53.250749 1.995385 -2.063942 -179.162799 -79.206415 -179.998842 -0.782347 4.095339 -0.022784 -0.066699 0.300467 0.000000 0.000000 0.000000 0.000000 0.000000 0.000000 0.000000 11.381230 -8.791799 0.913529 69.854905 -15.180451 6.859609 0.337463 79.686222 -0.037597 -11.132668 3.913718 -0.413173 0.176363 -0.270265 -0.000000 0.000000 0.000000 0.000000 0.000000 0.000000 0.000000 
-10.065550 15.341769 -0.461701 -30.936463 86.592780 -4.557947 -12.119189 1.851850 -5.429407 -5.420928 13.488770 -18.682803 -0.887208 3.306479 54.418277 1.001018 5.509256 -9.786902 -0.323200 0.000000 -74.524499 7.907013 0.932608 -1.948820 19.248076 -0.769397 -71.211692 1.926400 -5.977026 57.072056 -0.412686 1.376479 -11.602503 0.017800 -0.000000 -4.956700 5.776084 -3.063385 10.197701 0.462689 -2.919206 -0.836842 -6.027892 -2.829197 -0.170187 9.302356 -13.041543 -9.357767 -2.907964 -0.170978 -0.861089 0.000000 0.000000 0.000000 6.455055 9.293662 1.755081 -54.157128 2.830647 -1.763304 -179.204299 -79.752517 -179.998135 -0.883949 4.094718 -0.026285 -0.063278 0.296149 0.000000 0.000000 0.000000 0.000000 0.000000 0.000000 0.000000 11.417765 -8.532444 0.938949 69.662164 -14.781919 6.651011 0.347528 79.471860 -0.038143 -11.220791 3.854801 -0.410582 0.177939 -0.270486 -0.000000 0.000000 0.000000 0.000000 0.000000 0.000000 0.000000 
-9.864922 15.329535 -0.452174 -33.656812 86.889366 -7.317983 -12.184704 1.820580 -5.322624 -5.154853 12.716771 -18.452127 -0.644927 3.338675 55.287530 1.005556 5.632976 -8.008082 -0.150900 0.000000 -72.860300 7.914670 0.964759 -2.057558 18.847643 -0.722162 -70.898641 1.742876 -6.040413 58.592530 -0.620267 0.594848 -12.873481 0.073501 0.000000 -4.062100 6.214156 -3.077297 10.237314 0.568067 -2.928985 -0.846305 -5.976330 -2.844890 -0.235078 9.297663 -12.790427 -9.359349 -2.933429 -0.172766 -0.865885 0.000000 0.000000 0.000000 6.393679 9.234162 1.804220 -55.137538 3.602124 -1.429768 -179.254525 -80.405467 -179.997675 -0.950354 4.110606 -0.028787 -0.060267 0.291739 0.000000 0.000000 0.000000 0.000000 0.000000 0.000000 0.000000 11.501477 -8.253437 0.963969 69.443407 -14.298259 6.397353 0.357719 79.236030 -0.038910 -11.342065 3.761846 -0.405693 0.179768 -0.270539 -0.000000 0.000000 0.000000 0.000000 0.000000 0.000000 0.000000 
-9.667834 15.321704 -0.444014 -37.840653 87.227912 -11.493301 -12.264270 1.757479 -5.201528 -4.907299 11.866194 -18.419792 -0.401537 3.368468 56.313558 1.033773 5.851937 -6.401954 0.002800 0.000000 -70.079500 7.897793 0.958839 -2.165954 18.554145 -0.714656 -70.545919 1.598476 -6.093859 59.903132 -0.833580 -0.197769 -14.173442 0.164400 -0.000000 -4.370200 6.661687 -3.094603 10.258237 0.675658 -2.942987 -0.859994 -5.930511 -2.865211 -0.302042 9.317030 -12.513949 -9.342498 -2.962340 -0.175036 -0.865921 0.000000 0.000000 0.000000 6.329669 9.143194 1.850696 -56.168206 4.346536 -1.076838 -179.311782 -81.139821 -179.997435 -0.980111 4.138346 -0.030087 -0.057615 0.287179 0.000000 0.000000 0.000000 0.000000 0.000000 0.000000 0.000000 11.619044 -7.963898 0.988442 69.213359 -13.737752 6.101358 0.368327 78.971084 -0.039836 -11.485786 3.644205 -0.398807 0.181754 -0.270472 -0.000000 0.000000 0.000000 0.000000 0.000000 0.000000 0.000000 
-9.474331 15.318116 -0.436790 -43.675276 87.614222 -17.279689 -12.369393 1.662064 -5.068356 -4.692151 10.958283 -18.574963 -0.163765 3.394197 57.481132 1.083454 6.175931 -5.058846 0.137900 0.000001 -66.175200 7.848930 0.913096 -2.276393 18.346707 -0.771458 -70.157758 1.488365 -6.137262 61.004423 -1.045522 -0.972891 -15.448166 0.287300 0.000000 -5.622300 7.086715 -3.114413 10.261586 0.778772 -2.961384 -0.876628 -5.888277 -2.890083 -0.366159 9.360052 -12.225781 -9.309578 -2.991923 -0.177536 -0.861667 0.000000 0.000000 0.000000 6.272511 9.029986 1.891921 -57.243079 5.041428 -0.690568 -179.375972 -81.967343 -179.997389 -0.978997 4.178217 -0.030488 -0.055198 0.282449 0.000000 0.000000 0.000000 0.000000 0.000000 0.000000 0.000000 11.763576 -7.678874 1.010399 68.980590 -13.108758 5.763439 0.378956 78.685145 -0.040897 -11.645858 3.507022 -0.390222 0.183794 -0.270341 -0.000000 0.000000 0.000000 0.000000 0.000000 0.000000 0.000000 
-9.284288 15.318424 -0.429919 -51.364404 88.042999 -24.885059 -12.512716 1.540557 -4.924108 -4.530671 10.018779 -18.912391 0.060309 3.419178 58.768642 1.152071 6.617938 -4.054035 0.254000 -0.000000 -61.285400 7.760900 0.834744 -2.389286 18.193913 -0.905033 -69.745054 1.404827 -6.166739 61.907292 -1.248522 -1.704136 -16.643518 0.433700 0.000001 -7.585600 7.446331 -3.132029 10.245582 0.867321 -2.981964 -0.896016 -5.847831 -2.917161 -0.423743 9.426015 -11.934526 -9.262652 -3.019613 -0.180040 -0.853413 0.000000 0.000000 0.000000 6.229485 8.903869 1.926316 -58.348623 5.678326 -0.261924 -179.446222 -82.890330 -179.997486 -0.954602 4.228662 -0.030192 -0.052904 0.277492 0.000000 0.000000 0.000000 0.000000 0.000000 0.000000 0.000000 11.927646 -7.405509 1.028212 68.756602 -12.423530 5.385203 0.389201 78.387070 -0.042062 -11.815074 3.357697 -0.380239 0.185792 -0.270246 -0.000000 0.000000 0.000000 0.000000 0.000000 0.000000 0.000000 
